<?xml version="1.0" encoding="UTF-8" standalone="no"?>
<!DOCTYPE svg PUBLIC "-//W3C//DTD SVG 1.1//EN"
 "http://www.w3.org/Graphics/SVG/1.1/DTD/svg11.dtd">
<!-- Generated by graphviz version 2.40.1 (20161225.0304)
 -->
<!-- Title: %29 Pages: 1 -->
<svg width="640pt" height="260pt"
 viewBox="0.00 0.00 640.40 260.00" xmlns="http://www.w3.org/2000/svg" xmlns:xlink="http://www.w3.org/1999/xlink">
<g id="graph0" class="graph" transform="scale(1 1) rotate(0) translate(4 256)">
<title>%29</title>
<polygon fill="#ffffff" stroke="transparent" points="-4,4 -4,-256 636.401,-256 636.401,4 -4,4"/>
<!-- approved -->
<g id="node1" class="node">
<title>approved</title>
<ellipse fill="none" stroke="#000000" cx="315.7005" cy="-18" rx="130.1882" ry="18"/>
<text text-anchor="middle" x="315.7005" y="-13.8" font-family="Times,serif" font-size="14.00" fill="#000000">[approved] outcome: approved</text>
</g>
<!-- request -->
<g id="node2" class="node">
<title>request</title>
<ellipse fill="none" stroke="#000000" cx="315.7005" cy="-234" rx="97.2432" ry="18"/>
<text text-anchor="middle" x="315.7005" y="-229.8" font-family="Times,serif" font-size="14.00" fill="#000000">[request] start: request</text>
</g>
<!-- two_approvals.1.1 -->
<g id="node3" class="node">
<title>two_approvals.1.1</title>
<ellipse fill="none" stroke="#000000" cx="153.7005" cy="-162" rx="153.9012" ry="18"/>
<text text-anchor="middle" x="153.7005" y="-157.8" font-family="Times,serif" font-size="14.00" fill="#000000">[two_approvals.1.1] action: approval</text>
</g>
<!-- request&#45;&gt;two_approvals.1.1 -->
<g id="edge1" class="edge">
<title>request&#45;&gt;two_approvals.1.1</title>
<path fill="none" stroke="#000000" d="M278.1272,-217.3008C255.6003,-207.2888 226.7111,-194.4492 202.4407,-183.6623"/>
<polygon fill="#000000" stroke="#000000" points="203.605,-180.3497 193.0454,-179.4866 200.762,-186.7464 203.605,-180.3497"/>
</g>
<!-- two_approvals.1.0 -->
<g id="node4" class="node">
<title>two_approvals.1.0</title>
<ellipse fill="none" stroke="#000000" cx="478.7005" cy="-162" rx="153.9012" ry="18"/>
<text text-anchor="middle" x="478.7005" y="-157.8" font-family="Times,serif" font-size="14.00" fill="#000000">[two_approvals.1.0] action: approval</text>
</g>
<!-- request&#45;&gt;two_approvals.1.0 -->
<g id="edge2" class="edge">
<title>request&#45;&gt;two_approvals.1.0</title>
<path fill="none" stroke="#000000" d="M353.5057,-217.3008C376.1716,-207.2888 405.2392,-194.4492 429.6594,-183.6623"/>
<polygon fill="#000000" stroke="#000000" points="431.3796,-186.7288 439.1127,-179.4866 428.5511,-180.3257 431.3796,-186.7288"/>
</g>
<!-- two_approvals.1 -->
<g id="node5" class="node">
<title>two_approvals.1</title>
<ellipse fill="none" stroke="#000000" cx="315.7005" cy="-90" rx="104.781" ry="18"/>
<text text-anchor="middle" x="315.7005" y="-85.8" font-family="Times,serif" font-size="14.00" fill="#000000">[two_approvals.1] AND</text>
</g>
<!-- two_approvals.1.1&#45;&gt;two_approvals.1 -->
<g id="edge5" class="edge">
<title>two_approvals.1.1&#45;&gt;two_approvals.1</title>
<path fill="none" stroke="#000000" d="M192.9162,-144.5708C215.6498,-134.467 244.4305,-121.6756 268.4123,-111.017"/>
<polygon fill="#000000" stroke="#000000" points="269.9669,-114.1562 277.6835,-106.8964 267.1239,-107.7595 269.9669,-114.1562"/>
</g>
<!-- two_approvals.1.0&#45;&gt;two_approvals.1 -->
<g id="edge4" class="edge">
<title>two_approvals.1.0&#45;&gt;two_approvals.1</title>
<path fill="none" stroke="#000000" d="M439.2427,-144.5708C416.3688,-134.467 387.4104,-121.6756 363.2806,-111.017"/>
<polygon fill="#000000" stroke="#000000" points="364.5137,-107.7355 353.9521,-106.8964 361.6853,-114.1386 364.5137,-107.7355"/>
</g>
<!-- two_approvals.1&#45;&gt;approved -->
<g id="edge3" class="edge">
<title>two_approvals.1&#45;&gt;approved</title>
<path fill="none" stroke="#000000" d="M315.7005,-71.8314C315.7005,-64.131 315.7005,-54.9743 315.7005,-46.4166"/>
<polygon fill="#000000" stroke="#000000" points="319.2006,-46.4132 315.7005,-36.4133 312.2006,-46.4133 319.2006,-46.4132"/>
</g>
</g>
</svg>
