<?xml version="1.0" encoding="UTF-8" standalone="no"?>
<!DOCTYPE svg PUBLIC "-//W3C//DTD SVG 1.1//EN"
 "http://www.w3.org/Graphics/SVG/1.1/DTD/svg11.dtd">
<!-- Generated by graphviz version 2.40.1 (20161225.0304)
 -->
<!-- Title: %41 Pages: 1 -->
<svg width="356pt" height="332pt"
 viewBox="0.00 0.00 355.63 332.00" xmlns="http://www.w3.org/2000/svg" xmlns:xlink="http://www.w3.org/1999/xlink">
<g id="graph0" class="graph" transform="scale(1 1) rotate(0) translate(4 328)">
<title>%41</title>
<polygon fill="#ffffff" stroke="transparent" points="-4,4 -4,-328 351.626,-328 351.626,4 -4,4"/>
<!-- many_approval_steps.2 -->
<g id="node1" class="node">
<title>many_approval_steps.2</title>
<ellipse fill="#00ff00" stroke="#000000" cx="173.813" cy="-162" rx="173.6262" ry="18"/>
<text text-anchor="middle" x="173.813" y="-157.8" font-family="Times,serif" font-size="14.00" fill="#000000">[many_approval_steps.2] action: approval</text>
</g>
<!-- many_approval_steps.3 -->
<g id="node2" class="node">
<title>many_approval_steps.3</title>
<ellipse fill="#00ff00" stroke="#000000" cx="173.813" cy="-90" rx="173.6262" ry="18"/>
<text text-anchor="middle" x="173.813" y="-85.8" font-family="Times,serif" font-size="14.00" fill="#000000">[many_approval_steps.3] action: approval</text>
</g>
<!-- many_approval_steps.2&#45;&gt;many_approval_steps.3 -->
<g id="edge1" class="edge">
<title>many_approval_steps.2&#45;&gt;many_approval_steps.3</title>
<path fill="none" stroke="#000000" d="M173.813,-143.8314C173.813,-136.131 173.813,-126.9743 173.813,-118.4166"/>
<polygon fill="#000000" stroke="#000000" points="177.3131,-118.4132 173.813,-108.4133 170.3131,-118.4133 177.3131,-118.4132"/>
</g>
<!-- approved -->
<g id="node3" class="node">
<title>approved</title>
<ellipse fill="#00ff00" stroke="#000000" cx="173.813" cy="-18" rx="130.1882" ry="18"/>
<text text-anchor="middle" x="173.813" y="-13.8" font-family="Times,serif" font-size="14.00" fill="#000000">[approved] outcome: approved</text>
</g>
<!-- many_approval_steps.3&#45;&gt;approved -->
<g id="edge2" class="edge">
<title>many_approval_steps.3&#45;&gt;approved</title>
<path fill="none" stroke="#000000" d="M173.813,-71.8314C173.813,-64.131 173.813,-54.9743 173.813,-46.4166"/>
<polygon fill="#000000" stroke="#000000" points="177.3131,-46.4132 173.813,-36.4133 170.3131,-46.4133 177.3131,-46.4132"/>
</g>
<!-- request -->
<g id="node4" class="node">
<title>request</title>
<ellipse fill="#00ff00" stroke="#000000" cx="173.813" cy="-306" rx="97.2432" ry="18"/>
<text text-anchor="middle" x="173.813" y="-301.8" font-family="Times,serif" font-size="14.00" fill="#000000">[request] start: request</text>
</g>
<!-- many_approval_steps.1 -->
<g id="node5" class="node">
<title>many_approval_steps.1</title>
<ellipse fill="#00ff00" stroke="#000000" cx="173.813" cy="-234" rx="173.6262" ry="18"/>
<text text-anchor="middle" x="173.813" y="-229.8" font-family="Times,serif" font-size="14.00" fill="#000000">[many_approval_steps.1] action: approval</text>
</g>
<!-- request&#45;&gt;many_approval_steps.1 -->
<g id="edge3" class="edge">
<title>request&#45;&gt;many_approval_steps.1</title>
<path fill="none" stroke="#000000" d="M173.813,-287.8314C173.813,-280.131 173.813,-270.9743 173.813,-262.4166"/>
<polygon fill="#000000" stroke="#000000" points="177.3131,-262.4132 173.813,-252.4133 170.3131,-262.4133 177.3131,-262.4132"/>
</g>
<!-- many_approval_steps.1&#45;&gt;many_approval_steps.2 -->
<g id="edge4" class="edge">
<title>many_approval_steps.1&#45;&gt;many_approval_steps.2</title>
<path fill="none" stroke="#000000" d="M173.813,-215.8314C173.813,-208.131 173.813,-198.9743 173.813,-190.4166"/>
<polygon fill="#000000" stroke="#000000" points="177.3131,-190.4132 173.813,-180.4133 170.3131,-190.4133 177.3131,-190.4132"/>
</g>
</g>
</svg>
