<?xml version="1.0" encoding="UTF-8" standalone="no"?>
<!DOCTYPE svg PUBLIC "-//W3C//DTD SVG 1.1//EN"
 "http://www.w3.org/Graphics/SVG/1.1/DTD/svg11.dtd">
<!-- Generated by graphviz version 2.40.1 (20161225.0304)
 -->
<!-- Title: %1 Pages: 1 -->
<svg width="313pt" height="188pt"
 viewBox="0.00 0.00 312.72 188.00" xmlns="http://www.w3.org/2000/svg" xmlns:xlink="http://www.w3.org/1999/xlink">
<g id="graph0" class="graph" transform="scale(1 1) rotate(0) translate(4 184)">
<title>%1</title>
<polygon fill="#ffffff" stroke="transparent" points="-4,4 -4,-184 308.7163,-184 308.7163,4 -4,4"/>
<!-- request -->
<g id="node1" class="node">
<title>request</title>
<ellipse fill="#00ff00" stroke="#000000" cx="152.3582" cy="-162" rx="97.2432" ry="18"/>
<text text-anchor="middle" x="152.3582" y="-157.8" font-family="Times,serif" font-size="14.00" fill="#000000">[request] start: request</text>
</g>
<!-- admin_approval.1 -->
<g id="node2" class="node">
<title>admin_approval.1</title>
<ellipse fill="#89cff0" stroke="#000000" cx="152.3582" cy="-90" rx="152.2165" ry="18"/>
<text text-anchor="middle" x="152.3582" y="-85.8" font-family="Times,serif" font-size="14.00" fill="#000000">[admin_approval.1] action: approval</text>
</g>
<!-- request&#45;&gt;admin_approval.1 -->
<g id="edge1" class="edge">
<title>request&#45;&gt;admin_approval.1</title>
<path fill="none" stroke="#000000" d="M152.3582,-143.8314C152.3582,-136.131 152.3582,-126.9743 152.3582,-118.4166"/>
<polygon fill="#000000" stroke="#000000" points="155.8583,-118.4132 152.3582,-108.4133 148.8583,-118.4133 155.8583,-118.4132"/>
</g>
<!-- approved -->
<g id="node3" class="node">
<title>approved</title>
<ellipse fill="#d3d3d3" stroke="#000000" cx="152.3582" cy="-18" rx="130.1882" ry="18"/>
<text text-anchor="middle" x="152.3582" y="-13.8" font-family="Times,serif" font-size="14.00" fill="#000000">[approved] outcome: approved</text>
</g>
<!-- admin_approval.1&#45;&gt;approved -->
<g id="edge2" class="edge">
<title>admin_approval.1&#45;&gt;approved</title>
<path fill="none" stroke="#000000" d="M152.3582,-71.8314C152.3582,-64.131 152.3582,-54.9743 152.3582,-46.4166"/>
<polygon fill="#000000" stroke="#000000" points="155.8583,-46.4132 152.3582,-36.4133 148.8583,-46.4133 155.8583,-46.4132"/>
</g>
</g>
</svg>
