<?xml version="1.0" encoding="UTF-8" standalone="no"?>
<!DOCTYPE svg PUBLIC "-//W3C//DTD SVG 1.1//EN"
 "http://www.w3.org/Graphics/SVG/1.1/DTD/svg11.dtd">
<!-- Generated by graphviz version 2.40.1 (20161225.0304)
 -->
<!-- Title: %69 Pages: 1 -->
<svg width="325pt" height="188pt"
 viewBox="0.00 0.00 324.53 188.00" xmlns="http://www.w3.org/2000/svg" xmlns:xlink="http://www.w3.org/1999/xlink">
<g id="graph0" class="graph" transform="scale(1 1) rotate(0) translate(4 184)">
<title>%69</title>
<polygon fill="#ffffff" stroke="transparent" points="-4,4 -4,-184 320.5345,-184 320.5345,4 -4,4"/>
<!-- on_call.1 -->
<g id="node1" class="node">
<title>on_call.1</title>
<ellipse fill="#00ff00" stroke="#000000" cx="158.2673" cy="-90" rx="158.0348" ry="18"/>
<text text-anchor="middle" x="158.2673" y="-85.8" font-family="Times,serif" font-size="14.00" fill="#000000">[on_call.1] if: input.pagerduty.on_call</text>
</g>
<!-- approved -->
<g id="node2" class="node">
<title>approved</title>
<ellipse fill="#00ff00" stroke="#000000" cx="158.2673" cy="-18" rx="130.1882" ry="18"/>
<text text-anchor="middle" x="158.2673" y="-13.8" font-family="Times,serif" font-size="14.00" fill="#000000">[approved] outcome: approved</text>
</g>
<!-- on_call.1&#45;&gt;approved -->
<g id="edge1" class="edge">
<title>on_call.1&#45;&gt;approved</title>
<path fill="none" stroke="#000000" d="M158.2673,-71.8314C158.2673,-64.131 158.2673,-54.9743 158.2673,-46.4166"/>
<polygon fill="#000000" stroke="#000000" points="161.7674,-46.4132 158.2673,-36.4133 154.7674,-46.4133 161.7674,-46.4132"/>
</g>
<!-- request -->
<g id="node3" class="node">
<title>request</title>
<ellipse fill="#00ff00" stroke="#000000" cx="158.2673" cy="-162" rx="97.2432" ry="18"/>
<text text-anchor="middle" x="158.2673" y="-157.8" font-family="Times,serif" font-size="14.00" fill="#000000">[request] start: request</text>
</g>
<!-- request&#45;&gt;on_call.1 -->
<g id="edge2" class="edge">
<title>request&#45;&gt;on_call.1</title>
<path fill="none" stroke="#000000" d="M158.2673,-143.8314C158.2673,-136.131 158.2673,-126.9743 158.2673,-118.4166"/>
<polygon fill="#000000" stroke="#000000" points="161.7674,-118.4132 158.2673,-108.4133 154.7674,-118.4133 161.7674,-118.4132"/>
</g>
</g>
</svg>
