<?xml version="1.0" encoding="UTF-8" standalone="no"?>
<!DOCTYPE svg PUBLIC "-//W3C//DTD SVG 1.1//EN"
 "http://www.w3.org/Graphics/SVG/1.1/DTD/svg11.dtd">
<!-- Generated by graphviz version 2.40.1 (20161225.0304)
 -->
<!-- Title: %21 Pages: 1 -->
<svg width="334pt" height="260pt"
 viewBox="0.00 0.00 333.67 260.00" xmlns="http://www.w3.org/2000/svg" xmlns:xlink="http://www.w3.org/1999/xlink">
<g id="graph0" class="graph" transform="scale(1 1) rotate(0) translate(4 256)">
<title>%21</title>
<polygon fill="#ffffff" stroke="transparent" points="-4,4 -4,-256 329.668,-256 329.668,4 -4,4"/>
<!-- request -->
<g id="node1" class="node">
<title>request</title>
<ellipse fill="#00ff00" stroke="#000000" cx="162.834" cy="-234" rx="97.2432" ry="18"/>
<text text-anchor="middle" x="162.834" y="-229.8" font-family="Times,serif" font-size="14.00" fill="#000000">[request] start: request</text>
</g>
<!-- on_call.1 -->
<g id="node2" class="node">
<title>on_call.1</title>
<ellipse fill="#d3d3d3" stroke="#000000" cx="162.834" cy="-162" rx="158.0348" ry="18"/>
<text text-anchor="middle" x="162.834" y="-157.8" font-family="Times,serif" font-size="14.00" fill="#000000">[on_call.1] if: input.pagerduty.on_call</text>
</g>
<!-- request&#45;&gt;on_call.1 -->
<g id="edge1" class="edge">
<title>request&#45;&gt;on_call.1</title>
<path fill="none" stroke="#000000" d="M162.834,-215.8314C162.834,-208.131 162.834,-198.9743 162.834,-190.4166"/>
<polygon fill="#000000" stroke="#000000" points="166.3341,-190.4132 162.834,-180.4133 159.3341,-190.4133 166.3341,-190.4132"/>
</g>
<!-- on_call.2 -->
<g id="node3" class="node">
<title>on_call.2</title>
<ellipse fill="#d3d3d3" stroke="#000000" cx="162.834" cy="-90" rx="162.6682" ry="18"/>
<text text-anchor="middle" x="162.834" y="-85.8" font-family="Times,serif" font-size="14.00" fill="#000000">[on_call.2] if: input.group == &quot;admins&quot;</text>
</g>
<!-- on_call.1&#45;&gt;on_call.2 -->
<g id="edge2" class="edge">
<title>on_call.1&#45;&gt;on_call.2</title>
<path fill="none" stroke="#000000" d="M162.834,-143.8314C162.834,-136.131 162.834,-126.9743 162.834,-118.4166"/>
<polygon fill="#000000" stroke="#000000" points="166.3341,-118.4132 162.834,-108.4133 159.3341,-118.4133 166.3341,-118.4132"/>
</g>
<!-- approved -->
<g id="node4" class="node">
<title>approved</title>
<ellipse fill="#d3d3d3" stroke="#000000" cx="162.834" cy="-18" rx="130.1882" ry="18"/>
<text text-anchor="middle" x="162.834" y="-13.8" font-family="Times,serif" font-size="14.00" fill="#000000">[approved] outcome: approved</text>
</g>
<!-- on_call.2&#45;&gt;approved -->
<g id="edge3" class="edge">
<title>on_call.2&#45;&gt;approved</title>
<path fill="none" stroke="#000000" d="M162.834,-71.8314C162.834,-64.131 162.834,-54.9743 162.834,-46.4166"/>
<polygon fill="#000000" stroke="#000000" points="166.3341,-46.4132 162.834,-36.4133 159.3341,-46.4133 166.3341,-46.4132"/>
</g>
</g>
</svg>
