<?xml version="1.0" encoding="UTF-8" standalone="no"?>
<!DOCTYPE svg PUBLIC "-//W3C//DTD SVG 1.1//EN"
 "http://www.w3.org/Graphics/SVG/1.1/DTD/svg11.dtd">
<!-- Generated by graphviz version 2.40.1 (20161225.0304)
 -->
<!-- Title: %51 Pages: 1 -->
<svg width="445pt" height="404pt"
 viewBox="0.00 0.00 445.36 404.00" xmlns="http://www.w3.org/2000/svg" xmlns:xlink="http://www.w3.org/1999/xlink">
<g id="graph0" class="graph" transform="scale(1 1) rotate(0) translate(4 400)">
<title>%51</title>
<polygon fill="#ffffff" stroke="transparent" points="-4,4 -4,-400 441.3622,-400 441.3622,4 -4,4"/>
<!-- approved -->
<g id="node1" class="node">
<title>approved</title>
<ellipse fill="#d3d3d3" stroke="#000000" cx="218.6811" cy="-18" rx="130.1882" ry="18"/>
<text text-anchor="middle" x="218.6811" y="-13.8" font-family="Times,serif" font-size="14.00" fill="#000000">[approved] outcome: approved</text>
</g>
<!-- request -->
<g id="node2" class="node">
<title>request</title>
<ellipse fill="#00ff00" stroke="#000000" cx="218.6811" cy="-378" rx="97.2432" ry="18"/>
<text text-anchor="middle" x="218.6811" y="-373.8" font-family="Times,serif" font-size="14.00" fill="#000000">[request] start: request</text>
</g>
<!-- many_approval_steps.1 -->
<g id="node3" class="node">
<title>many_approval_steps.1</title>
<ellipse fill="#00ff00" stroke="#000000" cx="218.6811" cy="-306" rx="173.6262" ry="18"/>
<text text-anchor="middle" x="218.6811" y="-301.8" font-family="Times,serif" font-size="14.00" fill="#000000">[many_approval_steps.1] action: approval</text>
</g>
<!-- request&#45;&gt;many_approval_steps.1 -->
<g id="edge1" class="edge">
<title>request&#45;&gt;many_approval_steps.1</title>
<path fill="none" stroke="#000000" d="M218.6811,-359.8314C218.6811,-352.131 218.6811,-342.9743 218.6811,-334.4166"/>
<polygon fill="#000000" stroke="#000000" points="222.1812,-334.4132 218.6811,-324.4133 215.1812,-334.4133 222.1812,-334.4132"/>
</g>
<!-- many_approval_steps.2 -->
<g id="node4" class="node">
<title>many_approval_steps.2</title>
<ellipse fill="#00ff00" stroke="#000000" cx="218.6811" cy="-234" rx="173.6262" ry="18"/>
<text text-anchor="middle" x="218.6811" y="-229.8" font-family="Times,serif" font-size="14.00" fill="#000000">[many_approval_steps.2] action: approval</text>
</g>
<!-- many_approval_steps.1&#45;&gt;many_approval_steps.2 -->
<g id="edge2" class="edge">
<title>many_approval_steps.1&#45;&gt;many_approval_steps.2</title>
<path fill="none" stroke="#000000" d="M218.6811,-287.8314C218.6811,-280.131 218.6811,-270.9743 218.6811,-262.4166"/>
<polygon fill="#000000" stroke="#000000" points="222.1812,-262.4132 218.6811,-252.4133 215.1812,-262.4133 222.1812,-262.4132"/>
</g>
<!-- many_approval_steps.3 -->
<g id="node5" class="node">
<title>many_approval_steps.3</title>
<ellipse fill="#00ff00" stroke="#000000" cx="218.6811" cy="-162" rx="173.6262" ry="18"/>
<text text-anchor="middle" x="218.6811" y="-157.8" font-family="Times,serif" font-size="14.00" fill="#000000">[many_approval_steps.3] action: approval</text>
</g>
<!-- many_approval_steps.2&#45;&gt;many_approval_steps.3 -->
<g id="edge3" class="edge">
<title>many_approval_steps.2&#45;&gt;many_approval_steps.3</title>
<path fill="none" stroke="#000000" d="M218.6811,-215.8314C218.6811,-208.131 218.6811,-198.9743 218.6811,-190.4166"/>
<polygon fill="#000000" stroke="#000000" points="222.1812,-190.4132 218.6811,-180.4133 215.1812,-190.4133 222.1812,-190.4132"/>
</g>
<!-- many_approval_steps.4 -->
<g id="node6" class="node">
<title>many_approval_steps.4</title>
<ellipse fill="#d3d3d3" stroke="#000000" cx="218.6811" cy="-90" rx="218.8623" ry="18"/>
<text text-anchor="middle" x="218.6811" y="-85.8" font-family="Times,serif" font-size="14.00" fill="#000000">[many_approval_steps.4] if: size(input.approvals) &gt; 3</text>
</g>
<!-- many_approval_steps.3&#45;&gt;many_approval_steps.4 -->
<g id="edge4" class="edge">
<title>many_approval_steps.3&#45;&gt;many_approval_steps.4</title>
<path fill="none" stroke="#000000" d="M218.6811,-143.8314C218.6811,-136.131 218.6811,-126.9743 218.6811,-118.4166"/>
<polygon fill="#000000" stroke="#000000" points="222.1812,-118.4132 218.6811,-108.4133 215.1812,-118.4133 222.1812,-118.4132"/>
</g>
<!-- many_approval_steps.4&#45;&gt;approved -->
<g id="edge5" class="edge">
<title>many_approval_steps.4&#45;&gt;approved</title>
<path fill="none" stroke="#000000" d="M218.6811,-71.8314C218.6811,-64.131 218.6811,-54.9743 218.6811,-46.4166"/>
<polygon fill="#000000" stroke="#000000" points="222.1812,-46.4132 218.6811,-36.4133 215.1812,-46.4133 222.1812,-46.4132"/>
</g>
</g>
</svg>
